<svg width="323" height="101" viewBox="0 0 323 101" fill="none" xmlns="http://www.w3.org/2000/svg">
<path d="M21.544 68.576C15.16 68.576 10.048 67.376 6.208 64.976C2.368 62.528 0.448 58.808 0.448 53.816C0.448 51.176 0.904 49.16 1.816 47.768C2.728 46.376 4.072 45.68 5.848 45.68C7.144 45.68 8.2 46.016 9.016 46.688C9.832 47.36 10.24 48.224 10.24 49.28C10.24 50.24 10.168 51.08 10.024 51.8C10.024 51.992 9.976 52.328 9.88 52.808C9.832 53.288 9.808 53.792 9.808 54.32C9.808 56.48 10.888 58.088 13.048 59.144C15.256 60.2 18.328 60.728 22.264 60.728C26.344 60.728 29.536 60.008 31.84 58.568C34.144 57.08 35.296 55.016 35.296 52.376C35.296 50.744 34.768 49.352 33.712 48.2C32.656 47 31.336 46.016 29.752 45.248C28.168 44.432 25.936 43.448 23.056 42.296C19.36 40.856 16.336 39.488 13.984 38.192C11.68 36.896 9.688 35.144 8.008 32.936C6.376 30.68 5.56 27.896 5.56 24.584C5.56 21.128 6.472 18.056 8.296 15.368C10.168 12.68 12.832 10.592 16.288 9.104C19.792 7.616 23.896 6.872 28.6 6.872C32.104 6.872 35.32 7.4 38.248 8.456C41.176 9.464 43.504 11.024 45.232 13.136C47.008 15.248 47.896 17.84 47.896 20.912C47.896 23.936 47.44 26.216 46.528 27.752C45.616 29.288 44.272 30.056 42.496 30.056C41.248 30.056 40.192 29.672 39.328 28.904C38.512 28.136 38.104 27.224 38.104 26.168C38.104 25.256 38.176 24.416 38.32 23.648C38.464 22.208 38.536 21.296 38.536 20.912C38.536 18.896 37.552 17.36 35.584 16.304C33.616 15.248 31.168 14.72 28.24 14.72C24.112 14.72 20.944 15.488 18.736 17.024C16.576 18.512 15.496 20.624 15.496 23.36C15.496 25.184 16.048 26.744 17.152 28.04C18.304 29.336 19.72 30.416 21.4 31.28C23.08 32.144 25.432 33.176 28.456 34.376C32.104 35.864 35.032 37.208 37.24 38.408C39.448 39.608 41.32 41.24 42.856 43.304C44.44 45.368 45.232 47.912 45.232 50.936C45.232 56.6 43.072 60.968 38.752 64.04C34.48 67.064 28.744 68.576 21.544 68.576ZM90.6348 51.944C91.2588 51.944 91.7388 52.232 92.0748 52.808C92.4588 53.384 92.6508 54.176 92.6508 55.184C92.6508 57.104 92.1948 58.592 91.2828 59.648C89.0748 62.192 86.7948 64.28 84.4428 65.912C82.1388 67.544 79.4988 68.36 76.5228 68.36C74.0748 68.36 72.2268 67.664 70.9788 66.272C69.7308 64.832 69.1068 62.768 69.1068 60.08C69.1068 58.736 69.4428 56.336 70.1148 52.88C70.7388 49.856 71.0508 47.768 71.0508 46.616C71.0508 45.848 70.7868 45.464 70.2588 45.464C69.6348 45.464 68.7468 46.28 67.5948 47.912C66.4428 49.496 65.2908 51.608 64.1388 54.248C62.9868 56.888 62.0508 59.672 61.3308 62.6C60.4188 66.44 58.1628 68.36 54.5628 68.36C53.1228 68.36 52.1628 67.856 51.6828 66.848C51.2508 65.792 51.0348 63.92 51.0348 61.232C51.0348 59.696 51.0588 58.472 51.1068 57.56L51.1788 51.8C51.1788 44.408 51.9228 36.704 53.4108 28.688C54.9468 20.672 57.1788 13.952 60.1068 8.528C63.0828 3.056 66.6348 0.319996 70.7628 0.319996C72.9708 0.319996 74.7468 1.28 76.0908 3.2C77.4828 5.072 78.1788 7.52 78.1788 10.544C78.1788 15.392 76.7628 20.432 73.9308 25.664C71.0988 30.848 66.4908 36.92 60.1068 43.88C59.9628 46.376 59.8908 48.944 59.8908 51.584C61.4748 47.504 63.2268 44.192 65.1468 41.648C67.1148 39.056 69.0348 37.208 70.9068 36.104C72.8268 35 74.5788 34.448 76.1628 34.448C79.2828 34.448 80.8428 36.008 80.8428 39.128C80.8428 41 80.3148 44.384 79.2588 49.28C78.3468 53.456 77.8908 56.216 77.8908 57.56C77.8908 59.48 78.5868 60.44 79.9788 60.44C80.9388 60.44 82.0668 59.864 83.3628 58.712C84.7068 57.512 86.4828 55.592 88.6908 52.952C89.2668 52.28 89.9148 51.944 90.6348 51.944ZM69.2508 7.448C68.3868 7.448 67.4268 8.696 66.3708 11.192C65.3148 13.64 64.2828 16.976 63.2748 21.2C62.3148 25.376 61.5228 29.936 60.8988 34.88C63.8748 31.376 66.3228 27.56 68.2428 23.432C70.2108 19.304 71.1948 15.56 71.1948 12.2C71.1948 10.664 71.0268 9.488 70.6908 8.672C70.3548 7.856 69.8748 7.448 69.2508 7.448ZM123.535 45.896C124.159 45.896 124.639 46.208 124.975 46.832C125.311 47.456 125.479 48.248 125.479 49.208C125.479 51.512 124.783 52.88 123.391 53.312C120.511 54.32 117.343 54.896 113.887 55.04C112.975 59.072 111.175 62.312 108.487 64.76C105.799 67.16 102.751 68.36 99.3434 68.36C96.4634 68.36 93.9914 67.664 91.9274 66.272C89.9114 64.88 88.3754 63.032 87.3194 60.728C86.2634 58.424 85.7354 55.928 85.7354 53.24C85.7354 49.592 86.4314 46.352 87.8234 43.52C89.2154 40.64 91.1354 38.408 93.5834 36.824C96.0314 35.192 98.7434 34.376 101.719 34.376C105.367 34.376 108.295 35.648 110.503 38.192C112.759 40.688 114.079 43.784 114.463 47.48C116.719 47.336 119.407 46.856 122.527 46.04C122.911 45.944 123.247 45.896 123.535 45.896ZM99.9194 60.728C101.455 60.728 102.775 60.104 103.879 58.856C105.031 57.608 105.799 55.808 106.183 53.456C104.695 52.448 103.543 51.128 102.727 49.496C101.959 47.864 101.575 46.136 101.575 44.312C101.575 43.544 101.647 42.776 101.791 42.008H101.431C99.5114 42.008 97.9034 42.944 96.6074 44.816C95.3594 46.64 94.7354 49.232 94.7354 52.592C94.7354 55.232 95.2394 57.248 96.2474 58.64C97.3034 60.032 98.5274 60.728 99.9194 60.728ZM157.748 51.944C158.372 51.944 158.852 52.232 159.188 52.808C159.572 53.384 159.764 54.176 159.764 55.184C159.764 57.104 159.308 58.592 158.396 59.648C156.332 62.192 154.1 64.28 151.7 65.912C149.348 67.544 146.66 68.36 143.636 68.36C141.092 68.36 139.028 67.448 137.444 65.624C134.708 67.4 131.852 68.312 128.876 68.36C128.252 77.624 126.836 85.352 124.628 91.544C122.42 97.784 119.18 100.904 114.908 100.904C112.316 100.904 110.396 99.968 109.148 98.096C107.9 96.224 107.276 93.632 107.276 90.32C107.276 85.616 108.356 80.12 110.516 73.832C112.676 67.592 116.012 60.704 120.524 53.168C120.524 46.16 120.476 41.288 120.38 38.552C120.332 37.16 120.884 36.056 122.036 35.24C123.188 34.424 124.628 34.016 126.356 34.016C127.364 34.016 128.084 34.232 128.516 34.664C128.996 35.048 129.26 35.84 129.308 37.04C129.308 38.24 129.332 39.128 129.38 39.704C130.916 37.784 132.428 36.416 133.916 35.6C135.404 34.736 136.988 34.304 138.668 34.304C141.356 34.304 143.54 35.384 145.22 37.544C146.948 39.704 147.812 42.536 147.812 46.04C147.812 48.584 147.404 51.056 146.588 53.456C145.772 55.856 144.644 58.04 143.204 60.008C144.212 60.296 145.052 60.44 145.724 60.44C147.308 60.44 148.82 59.864 150.26 58.712C151.7 57.56 153.548 55.64 155.804 52.952C156.38 52.28 157.028 51.944 157.748 51.944ZM129.236 61.448C130.964 61.064 132.548 60.128 133.988 58.64C135.476 57.104 136.652 55.232 137.516 53.024C138.38 50.768 138.812 48.416 138.812 45.968C138.812 44.528 138.524 43.448 137.948 42.728C137.372 41.96 136.604 41.576 135.644 41.576C133.916 41.576 131.828 43.4 129.38 47.048C129.332 49.16 129.308 52.256 129.308 56.336C129.308 58.544 129.284 60.248 129.236 61.448ZM115.484 93.848C116.78 93.848 117.86 91.016 118.724 85.352C119.588 79.736 120.14 72.728 120.38 64.328C118.316 69.128 116.684 73.712 115.484 78.08C114.284 82.448 113.684 86.12 113.684 89.096C113.684 90.632 113.876 91.808 114.26 92.624C114.596 93.44 115.004 93.848 115.484 93.848ZM192.412 51.944C193.036 51.944 193.516 52.232 193.852 52.808C194.236 53.384 194.428 54.176 194.428 55.184C194.428 57.104 193.972 58.592 193.06 59.648C190.996 62.192 188.764 64.28 186.364 65.912C184.012 67.544 181.324 68.36 178.3 68.36C175.756 68.36 173.692 67.448 172.108 65.624C169.372 67.4 166.516 68.312 163.54 68.36C162.916 77.624 161.5 85.352 159.292 91.544C157.084 97.784 153.844 100.904 149.572 100.904C146.98 100.904 145.06 99.968 143.812 98.096C142.564 96.224 141.94 93.632 141.94 90.32C141.94 85.616 143.02 80.12 145.18 73.832C147.34 67.592 150.676 60.704 155.188 53.168C155.188 46.16 155.14 41.288 155.044 38.552C154.996 37.16 155.548 36.056 156.7 35.24C157.852 34.424 159.292 34.016 161.02 34.016C162.028 34.016 162.748 34.232 163.18 34.664C163.66 35.048 163.924 35.84 163.972 37.04C163.972 38.24 163.996 39.128 164.044 39.704C165.58 37.784 167.092 36.416 168.58 35.6C170.068 34.736 171.652 34.304 173.332 34.304C176.02 34.304 178.204 35.384 179.884 37.544C181.612 39.704 182.476 42.536 182.476 46.04C182.476 48.584 182.068 51.056 181.252 53.456C180.436 55.856 179.308 58.04 177.868 60.008C178.876 60.296 179.716 60.44 180.388 60.44C181.972 60.44 183.484 59.864 184.924 58.712C186.364 57.56 188.212 55.64 190.468 52.952C191.044 52.28 191.692 51.944 192.412 51.944ZM163.9 61.448C165.628 61.064 167.212 60.128 168.652 58.64C170.14 57.104 171.316 55.232 172.18 53.024C173.044 50.768 173.476 48.416 173.476 45.968C173.476 44.528 173.188 43.448 172.612 42.728C172.036 41.96 171.268 41.576 170.308 41.576C168.58 41.576 166.492 43.4 164.044 47.048C163.996 49.16 163.972 52.256 163.972 56.336C163.972 58.544 163.948 60.248 163.9 61.448ZM150.148 93.848C151.444 93.848 152.524 91.016 153.388 85.352C154.252 79.736 154.804 72.728 155.044 64.328C152.98 69.128 151.348 73.712 150.148 78.08C148.948 82.448 148.348 86.12 148.348 89.096C148.348 90.632 148.54 91.808 148.924 92.624C149.26 93.44 149.668 93.848 150.148 93.848ZM220.74 51.944C221.364 51.944 221.844 52.232 222.18 52.808C222.564 53.384 222.756 54.176 222.756 55.184C222.756 57.104 222.3 58.592 221.388 59.648C219.612 61.808 217.092 63.8 213.828 65.624C210.612 67.448 207.156 68.36 203.46 68.36C198.42 68.36 194.508 66.992 191.724 64.256C188.94 61.52 187.548 57.776 187.548 53.024C187.548 49.712 188.244 46.64 189.636 43.808C191.028 40.928 192.948 38.648 195.396 36.968C197.892 35.288 200.7 34.448 203.82 34.448C206.604 34.448 208.836 35.288 210.516 36.968C212.196 38.6 213.036 40.832 213.036 43.664C213.036 46.976 211.836 49.832 209.436 52.232C207.084 54.584 203.076 56.456 197.412 57.848C198.612 60.056 200.892 61.16 204.252 61.16C206.412 61.16 208.86 60.416 211.596 58.928C214.38 57.392 216.78 55.4 218.796 52.952C219.372 52.28 220.02 51.944 220.74 51.944ZM202.596 41.504C200.82 41.504 199.308 42.536 198.06 44.6C196.86 46.664 196.26 49.16 196.26 52.088V52.232C199.092 51.56 201.324 50.552 202.956 49.208C204.588 47.864 205.404 46.304 205.404 44.528C205.404 43.616 205.14 42.896 204.612 42.368C204.132 41.792 203.46 41.504 202.596 41.504ZM245.982 44.312C247.038 44.312 247.926 44.696 248.646 45.464C249.414 46.184 249.797 47.096 249.797 48.2C249.797 48.824 249.654 49.496 249.366 50.216C248.598 51.992 247.518 53.48 246.126 54.68C244.734 55.88 243.198 56.48 241.518 56.48C240.174 56.48 239.022 56 238.062 55.04C237.15 54.08 236.694 52.784 236.694 51.152C236.694 50.24 236.742 49.256 236.838 48.2C236.934 47.432 236.982 46.904 236.982 46.616C236.982 46.232 236.886 45.944 236.694 45.752C236.55 45.56 236.358 45.464 236.118 45.464C235.446 45.464 234.534 46.28 233.382 47.912C232.23 49.496 231.078 51.608 229.926 54.248C228.774 56.888 227.838 59.672 227.118 62.6C226.59 64.904 225.99 66.44 225.318 67.208C224.646 67.976 223.542 68.36 222.006 68.36C220.182 68.36 218.886 67.4 218.118 65.48C217.398 63.56 217.038 60.488 217.038 56.264C217.038 50.024 217.926 44.096 219.702 38.48C220.134 37.088 220.83 36.08 221.79 35.456C222.798 34.784 224.19 34.448 225.966 34.448C226.926 34.448 227.598 34.568 227.982 34.808C228.366 35.048 228.558 35.504 228.558 36.176C228.558 36.944 228.198 38.672 227.478 41.36C226.998 43.28 226.614 44.96 226.326 46.4C226.038 47.84 225.798 49.616 225.606 51.728C227.19 47.6 228.966 44.24 230.934 41.648C232.902 39.056 234.822 37.208 236.694 36.104C238.566 35 240.27 34.448 241.806 34.448C243.198 34.448 244.254 34.856 244.974 35.672C245.742 36.44 246.126 37.592 246.126 39.128C246.126 40.04 245.862 41.768 245.334 44.312H245.982ZM308.245 63.68C308.533 64.784 308.365 65.792 307.741 66.704C307.117 67.568 306.229 68 305.077 68H302.989C302.317 68 301.669 67.784 301.045 67.352C300.469 66.92 300.061 66.392 299.821 65.768L297.085 57.488C296.893 56.864 296.485 56.552 295.861 56.552H283.549C282.925 56.552 282.517 56.864 282.325 57.488L279.589 65.768C279.349 66.392 278.941 66.92 278.365 67.352C277.789 67.784 277.141 68 276.421 68H274.333C273.181 68 272.293 67.568 271.669 66.704C270.997 65.744 270.853 64.736 271.237 63.68L285.205 21.56C285.445 20.888 285.829 20.36 286.357 19.976C286.933 19.544 287.557 19.328 288.229 19.328H291.181C291.853 19.328 292.477 19.544 293.053 19.976C293.629 20.36 294.013 20.888 294.205 21.56L308.245 63.68ZM293.701 47.12L290.101 36.104C289.861 35.768 289.597 35.768 289.309 36.104L285.709 47.12C285.613 47.36 285.637 47.576 285.781 47.768C285.925 47.96 286.117 48.056 286.357 48.056H293.053C293.293 48.056 293.485 47.96 293.629 47.768C293.773 47.576 293.797 47.36 293.701 47.12ZM322.762 64.688C322.762 65.6 322.426 66.392 321.754 67.064C321.13 67.688 320.362 68 319.45 68H317.506C316.594 68 315.802 67.688 315.13 67.064C314.506 66.392 314.194 65.6 314.194 64.688V22.64C314.194 21.68 314.506 20.888 315.13 20.264C315.802 19.64 316.594 19.328 317.506 19.328H319.45C320.362 19.328 321.13 19.64 321.754 20.264C322.426 20.888 322.762 21.68 322.762 22.64V64.688Z" fill="black"/>
</svg>
